<svg width="351" height="346" viewBox="0 0 351 346" fill="none" xmlns="http://www.w3.org/2000/svg">
<g opacity="0.25">
<circle cx="176" cy="148" r="148" fill="white"/>
<mask id="path-2-inside-1" fill="white">
<path fill-rule="evenodd" clip-rule="evenodd" d="M250.657 275.818C228.74 288.647 203.229 296 176 296C148.771 296 123.26 288.647 101.343 275.818H250.657ZM267.094 264.653C257.737 241.076 230.589 188.364 174.879 188.364C120.208 188.364 93.0434 239.127 83.2063 263.303C49.5396 236.175 28 194.603 28 148C28 66.2619 94.2619 0 176 0C257.738 0 324 66.2619 324 148C324 195.383 301.734 237.564 267.094 264.653ZM232.061 116.606C232.061 147.568 206.961 172.667 176 172.667C145.039 172.667 119.939 147.568 119.939 116.606C119.939 85.6447 145.039 60.5455 176 60.5455C206.961 60.5455 232.061 85.6447 232.061 116.606Z"/>
</mask>
<path fill-rule="evenodd" clip-rule="evenodd" d="M250.657 275.818C228.74 288.647 203.229 296 176 296C148.771 296 123.26 288.647 101.343 275.818H250.657ZM267.094 264.653C257.737 241.076 230.589 188.364 174.879 188.364C120.208 188.364 93.0434 239.127 83.2063 263.303C49.5396 236.175 28 194.603 28 148C28 66.2619 94.2619 0 176 0C257.738 0 324 66.2619 324 148C324 195.383 301.734 237.564 267.094 264.653ZM232.061 116.606C232.061 147.568 206.961 172.667 176 172.667C145.039 172.667 119.939 147.568 119.939 116.606C119.939 85.6447 145.039 60.5455 176 60.5455C206.961 60.5455 232.061 85.6447 232.061 116.606Z" fill="#004267" fill-opacity="0.13"/>
<path d="M250.657 275.818L252.172 278.407L261.72 272.818H250.657V275.818ZM101.343 275.818V272.818H90.2796L99.8279 278.407L101.343 275.818ZM267.094 264.653L264.305 265.76L265.784 269.486L268.942 267.016L267.094 264.653ZM83.2063 263.303L81.324 265.639L84.4648 268.17L85.9851 264.434L83.2063 263.303ZM176 299C203.776 299 229.808 291.498 252.172 278.407L249.141 273.229C227.672 285.796 202.682 293 176 293V299ZM99.8279 278.407C122.192 291.498 148.224 299 176 299V293C149.318 293 124.328 285.796 102.859 273.229L99.8279 278.407ZM250.657 272.818H101.343V278.818H250.657V272.818ZM174.879 191.364C201.672 191.364 221.64 204.005 236.167 219.704C250.733 235.447 259.693 254.139 264.305 265.76L269.882 263.546C265.137 251.59 255.845 232.137 240.571 215.63C225.256 199.078 203.795 185.364 174.879 185.364V191.364ZM85.9851 264.434C90.8342 252.517 99.9141 234.162 114.41 218.828C128.864 203.539 148.583 191.364 174.879 191.364V185.364C146.504 185.364 125.305 198.57 110.05 214.707C94.8365 230.799 85.4155 249.914 80.4276 262.173L85.9851 264.434ZM25 148C25 195.549 46.9809 237.966 81.324 265.639L85.0887 260.967C52.0983 234.384 31 193.657 31 148H25ZM176 -3C92.605 -3 25 64.605 25 148H31C31 67.9187 95.9187 3 176 3V-3ZM327 148C327 64.605 259.395 -3 176 -3V3C256.081 3 321 67.9187 321 148H327ZM268.942 267.016C304.277 239.384 327 196.345 327 148H321C321 194.421 299.19 235.745 265.246 262.29L268.942 267.016ZM176 175.667C208.618 175.667 235.061 149.224 235.061 116.606H229.061C229.061 145.911 205.305 169.667 176 169.667V175.667ZM116.939 116.606C116.939 149.224 143.382 175.667 176 175.667V169.667C146.695 169.667 122.939 145.911 122.939 116.606H116.939ZM176 57.5455C143.382 57.5455 116.939 83.9879 116.939 116.606H122.939C122.939 87.3016 146.695 63.5455 176 63.5455V57.5455ZM235.061 116.606C235.061 83.9879 208.618 57.5455 176 57.5455V63.5455C205.305 63.5455 229.061 87.3016 229.061 116.606H235.061Z" fill="black" fill-opacity="0.1" mask="url(#path-2-inside-1)"/>
<path d="M241.03 129.36C241.03 158.232 192.869 181.637 176.586 181.637C160.303 181.637 110.97 158.232 110.97 129.36C110.97 110.278 120.985 123.001 140.121 129.36C149.938 132.622 162.982 116.606 176.586 116.606C192.512 116.606 204.828 131.392 215.242 127.711C231.064 122.119 241.03 111.949 241.03 129.36Z" fill="#AFDAEB"/>
<path d="M240.53 129.36C240.53 136.435 237.58 143.207 232.853 149.405C228.126 155.604 221.643 161.201 214.635 165.911C207.629 170.619 200.115 174.431 193.343 177.063C186.559 179.701 180.564 181.137 176.586 181.137C172.607 181.137 166.538 179.7 159.643 177.062C152.76 174.429 145.1 170.617 137.947 165.908C130.792 161.197 124.163 155.6 119.327 149.401C114.49 143.202 111.47 136.431 111.47 129.36C111.47 126.993 111.625 125.143 111.927 123.724C112.228 122.302 112.669 121.353 113.207 120.748C114.23 119.598 115.797 119.51 118.215 120.295C120.245 120.955 122.699 122.173 125.615 123.622C126.152 123.888 126.704 124.162 127.272 124.442C130.907 126.234 135.146 128.234 139.964 129.834C142.572 130.701 145.356 130.273 148.221 129.212C151.084 128.152 154.097 126.433 157.185 124.639C157.377 124.527 157.57 124.415 157.763 124.302C160.683 122.604 163.675 120.863 166.731 119.515C169.987 118.079 173.281 117.106 176.586 117.106C184.222 117.106 191.029 120.566 197.298 123.753C197.451 123.83 197.603 123.908 197.755 123.985C200.933 125.599 203.986 127.124 206.904 128.007C209.829 128.893 212.669 129.151 215.409 128.183C219.25 126.825 222.746 125.2 225.821 123.771L226.157 123.615C229.332 122.139 232.01 120.914 234.185 120.396C236.355 119.879 237.845 120.104 238.843 121.292C239.9 122.551 240.53 125.014 240.53 129.36Z" stroke="black" stroke-opacity="0.1"/>
<path d="M140.121 141.273C140.121 141.273 162.332 145.829 176.732 145.757C190.564 145.687 211.879 141.273 211.879 141.273" stroke="#004267" stroke-opacity="0.13" stroke-width="0.5" stroke-linecap="round"/>
<path d="M140.121 152.485C140.121 152.485 162.332 157.041 176.732 156.969C190.564 156.899 211.879 152.485 211.879 152.485" stroke="#004267" stroke-opacity="0.13" stroke-width="0.5" stroke-linecap="round"/>
<path d="M140.121 163.697C140.121 163.697 162.332 168.253 176.732 168.181C190.564 168.111 211.879 163.697 211.879 163.697" stroke="#004267" stroke-opacity="0.13" stroke-width="0.5" stroke-linecap="round"/>
</g>
<path d="M6.9 335.28C9.68 335.28 11.24 333.5 11.24 331.14C11.24 328.78 9.68 327 6.9 327H1.88V341H4.08V335.28H6.9ZM7 333.2H4.08V329.08H7C8.26 329.08 9 329.84 9 331.14C9 332.44 8.26 333.2 7 333.2ZM22.6183 341V330.92H20.5383V335C20.5383 337.78 19.2583 339.32 17.9583 339.32C17.0183 339.32 16.3983 338.84 16.3983 337.48V330.92H14.3183V338.14C14.3183 340.1 15.5183 341.16 17.2783 341.16C18.6183 341.16 19.8183 340.48 20.5383 339.28V341H22.6183ZM25.6036 332.76H27.2836V337.56C27.2836 340.04 28.6836 341.16 30.5836 341.16C31.1436 341.16 31.6636 341.06 32.2036 340.8L31.6636 339.04C31.3036 339.26 31.0636 339.32 30.7036 339.32C29.7836 339.32 29.3636 338.82 29.3636 337.68V332.76H31.9836V330.92H29.3636V326.84L27.2836 328.14V330.92H25.6036V332.76ZM40.1952 330.92L43.7352 340.5L42.0952 345.08H44.1752L49.2752 330.92H47.0752L44.7752 337.7L42.3952 330.92H40.1952ZM50.9214 335.96C50.9214 338.8 52.7614 341.16 55.8814 341.16C59.0014 341.16 60.8414 338.8 60.8414 335.96C60.8414 333.12 59.0014 330.76 55.8814 330.76C52.7614 330.76 50.9214 333.12 50.9214 335.96ZM53.1214 335.96C53.1214 334.26 54.0614 332.6 55.8814 332.6C57.7014 332.6 58.6414 334.26 58.6414 335.96C58.6414 337.66 57.7014 339.32 55.8814 339.32C54.0614 339.32 53.1214 337.66 53.1214 335.96ZM72.423 341V330.92H70.343V335C70.343 337.78 69.063 339.32 67.763 339.32C66.823 339.32 66.203 338.84 66.203 337.48V330.92H64.123V338.14C64.123 340.1 65.323 341.16 67.083 341.16C68.423 341.16 69.623 340.48 70.343 339.28V341H72.423ZM78.4758 341V337.26C78.4758 334.08 79.8558 332.6 81.1958 332.6C81.6158 332.6 82.0558 332.7 82.3758 332.9L82.7358 331C82.4358 330.88 81.9958 330.76 81.4558 330.76C80.3758 330.76 79.1758 331.4 78.4758 332.6V330.92H76.3958V341H78.4758ZM91.8919 330.92V341H93.9719V337.18C93.9719 334.18 95.0719 332.6 96.3319 332.6C97.2119 332.6 97.8119 333.14 97.8119 334.24V341H99.8919V336.96C99.8919 334.18 101.012 332.6 102.252 332.6C103.132 332.6 103.732 333.14 103.732 334.24V341H105.812V333.78C105.812 332.02 104.772 330.76 102.932 330.76C101.632 330.76 100.492 331.52 99.7919 332.84C99.4919 331.58 98.3719 330.76 97.0119 330.76C95.7919 330.76 94.7919 331.38 93.9719 332.64V330.92H91.8919ZM109.083 338.1C109.083 340.2 110.503 341.16 112.183 341.16C113.603 341.16 114.643 340.6 115.303 339.68L115.503 341H117.263V334.74C117.263 331.78 115.583 330.76 113.243 330.76C111.303 330.76 109.863 331.84 109.443 333.54L111.343 333.94C111.683 333.04 112.403 332.6 113.223 332.6C114.283 332.6 115.183 333.1 115.183 334.36V334.8H113.443C110.863 334.8 109.083 336.02 109.083 338.1ZM111.283 338.1C111.283 337.14 112.083 336.54 113.363 336.54H115.183V336.76C115.183 338.5 113.823 339.32 112.543 339.32C111.663 339.32 111.283 338.78 111.283 338.1ZM124.059 330.76C122.239 330.76 120.959 332.06 120.959 333.62C120.959 335.16 121.959 335.9 123.119 336.38C124.299 336.88 125.519 337.12 125.519 338C125.519 338.92 124.959 339.32 124.159 339.32C123.039 339.32 122.339 338.4 121.939 337.5L120.179 338.46C120.699 339.72 121.999 341.16 124.079 341.16C126.239 341.16 127.579 339.7 127.579 337.96C127.579 336.16 126.119 335.56 124.759 335.04C123.719 334.64 122.959 334.32 122.959 333.6C122.959 332.94 123.439 332.6 123.959 332.6C124.599 332.6 125.219 332.88 125.719 333.52L127.039 332.36C126.399 331.36 125.279 330.76 124.059 330.76ZM130.829 326.84V341H132.909V336.18L136.809 341H139.449L134.969 335.56L139.189 330.92H136.549L132.909 334.94V326.84H130.829ZM147.753 335.96C147.753 338.8 149.593 341.16 152.713 341.16C155.833 341.16 157.673 338.8 157.673 335.96C157.673 333.12 155.833 330.76 152.713 330.76C149.593 330.76 147.753 333.12 147.753 335.96ZM149.953 335.96C149.953 334.26 150.893 332.6 152.713 332.6C154.533 332.6 155.473 334.26 155.473 335.96C155.473 337.66 154.533 339.32 152.713 339.32C150.893 339.32 149.953 337.66 149.953 335.96ZM160.978 330.92V341H163.058V336.92C163.058 334.14 164.338 332.6 165.638 332.6C166.578 332.6 167.198 333.08 167.198 334.44V341H169.278V333.78C169.278 331.82 168.078 330.76 166.318 330.76C164.978 330.76 163.778 331.44 163.058 332.64V330.92H160.978ZM178.896 338.1C178.896 340.2 180.316 341.16 181.996 341.16C183.416 341.16 184.456 340.6 185.116 339.68L185.316 341H187.076V334.74C187.076 331.78 185.396 330.76 183.056 330.76C181.116 330.76 179.676 331.84 179.256 333.54L181.156 333.94C181.496 333.04 182.216 332.6 183.036 332.6C184.096 332.6 184.996 333.1 184.996 334.36V334.8H183.256C180.676 334.8 178.896 336.02 178.896 338.1ZM181.096 338.1C181.096 337.14 181.896 336.54 183.176 336.54H184.996V336.76C184.996 338.5 183.636 339.32 182.356 339.32C181.476 339.32 181.096 338.78 181.096 338.1ZM190.814 330.92V341H192.894V336.92C192.894 334.14 194.174 332.6 195.474 332.6C196.414 332.6 197.034 333.08 197.034 334.44V341H199.114V333.78C199.114 331.82 197.914 330.76 196.154 330.76C194.814 330.76 193.614 331.44 192.894 332.64V330.92H190.814ZM202.226 335.96C202.226 339.18 203.746 341.16 206.726 341.16C208.046 341.16 209.126 340.42 209.466 339.84V341H211.546V326.84H209.466V332.04C209.006 331.38 207.766 330.76 206.766 330.76C203.746 330.76 202.226 332.84 202.226 335.96ZM204.426 335.96C204.426 333.88 205.506 332.6 207.006 332.6C208.506 332.6 209.586 333.88 209.586 335.96C209.586 338.04 208.506 339.32 207.006 339.32C205.506 339.32 204.426 338.04 204.426 335.96ZM228.634 337.58C228.154 338.66 227.334 339.32 226.134 339.32C224.354 339.32 223.594 337.86 223.594 335.96C223.594 334.06 224.354 332.6 226.134 332.6C227.334 332.6 228.154 333.26 228.634 334.34L230.494 333.54C229.694 331.72 228.274 330.76 226.134 330.76C222.934 330.76 221.394 333.2 221.394 335.96C221.394 338.72 222.934 341.16 226.134 341.16C228.274 341.16 229.694 340.2 230.494 338.38L228.634 337.58ZM233.934 326.84V341H236.014V326.84H233.934ZM239.24 328.08C239.24 328.88 239.86 329.5 240.68 329.5C241.5 329.5 242.12 328.88 242.12 328.08C242.12 327.28 241.5 326.62 240.68 326.62C239.86 326.62 239.24 327.28 239.24 328.08ZM239.64 330.92V341H241.72V330.92H239.64ZM252.2 337.58C251.72 338.66 250.9 339.32 249.7 339.32C247.92 339.32 247.16 337.86 247.16 335.96C247.16 334.06 247.92 332.6 249.7 332.6C250.9 332.6 251.72 333.26 252.2 334.34L254.06 333.54C253.26 331.72 251.84 330.76 249.7 330.76C246.5 330.76 244.96 333.2 244.96 335.96C244.96 338.72 246.5 341.16 249.7 341.16C251.84 341.16 253.26 340.2 254.06 338.38L252.2 337.58ZM257.267 326.84V341H259.347V336.18L263.247 341H265.887L261.407 335.56L265.627 330.92H262.987L259.347 334.94V326.84H257.267ZM274.091 338.1C274.091 340.2 275.511 341.16 277.191 341.16C278.611 341.16 279.651 340.6 280.311 339.68L280.511 341H282.271V334.74C282.271 331.78 280.591 330.76 278.251 330.76C276.311 330.76 274.871 331.84 274.451 333.54L276.351 333.94C276.691 333.04 277.411 332.6 278.231 332.6C279.291 332.6 280.191 333.1 280.191 334.36V334.8H278.451C275.871 334.8 274.091 336.02 274.091 338.1ZM276.291 338.1C276.291 337.14 277.091 336.54 278.371 336.54H280.191V336.76C280.191 338.5 278.831 339.32 277.551 339.32C276.671 339.32 276.291 338.78 276.291 338.1ZM295.321 330.76C293.501 330.76 292.221 332.06 292.221 333.62C292.221 335.16 293.221 335.9 294.381 336.38C295.561 336.88 296.781 337.12 296.781 338C296.781 338.92 296.221 339.32 295.421 339.32C294.301 339.32 293.601 338.4 293.201 337.5L291.441 338.46C291.961 339.72 293.261 341.16 295.341 341.16C297.501 341.16 298.841 339.7 298.841 337.96C298.841 336.16 297.381 335.56 296.021 335.04C294.981 334.64 294.221 334.32 294.221 333.6C294.221 332.94 294.701 332.6 295.221 332.6C295.861 332.6 296.481 332.88 296.981 333.52L298.301 332.36C297.661 331.36 296.541 330.76 295.321 330.76ZM306.266 332.6C307.766 332.6 308.526 333.68 308.706 334.8H303.806C304.026 333.54 304.886 332.6 306.266 332.6ZM310.906 335.64C310.906 333.38 309.486 330.76 306.266 330.76C302.946 330.76 301.566 333.56 301.566 335.96C301.566 338.36 302.946 341.16 306.266 341.16C308.566 341.16 309.706 340.22 310.686 338.32L308.906 337.62C308.386 338.72 307.346 339.32 306.266 339.32C304.626 339.32 303.766 338.02 303.766 336.54H310.906V335.64ZM314.164 326.84V341H316.244V326.84H314.164ZM319.381 332.76H320.681V341H322.761V332.76H326.161V341H328.241V330.92H322.761V330.66C322.761 329.5 323.581 328.68 324.981 328.68C325.741 328.68 326.301 328.8 327.021 329.14L327.681 327.42C326.981 327.04 326.161 326.84 324.921 326.84C322.761 326.84 320.681 327.94 320.681 330.66V330.92H319.381V332.76ZM336.512 332.6C338.012 332.6 338.772 333.68 338.952 334.8H334.052C334.272 333.54 335.132 332.6 336.512 332.6ZM341.152 335.64C341.152 333.38 339.732 330.76 336.512 330.76C333.192 330.76 331.812 333.56 331.812 335.96C331.812 338.36 333.192 341.16 336.512 341.16C338.812 341.16 339.952 340.22 340.932 338.32L339.152 337.62C338.632 338.72 337.592 339.32 336.512 339.32C334.872 339.32 334.012 338.02 334.012 336.54H341.152V335.64ZM345.144 327L345.684 336.58H347.444L347.984 327H345.144ZM345.044 339.58C345.044 340.44 345.684 341.08 346.564 341.08C347.444 341.08 348.084 340.44 348.084 339.58C348.084 338.72 347.444 338.08 346.564 338.08C345.684 338.08 345.044 338.72 345.044 339.58Z" fill="#A6BBC8"/>
</svg>
