<svg width="188" height="27" viewBox="0 0 188 27" fill="none" xmlns="http://www.w3.org/2000/svg">
<mask id="path-1-inside-1" fill="white">
<path fill-rule="evenodd" clip-rule="evenodd" d="M16.163 25.0222C14.5721 25.9534 12.7202 26.4872 10.7436 26.4872C8.76702 26.4872 6.91512 25.9534 5.32416 25.0222H16.163ZM17.3562 24.2117C16.677 22.5002 14.7063 18.6737 10.6622 18.6737C6.69356 18.6737 4.72162 22.3587 4.00752 24.1137C1.56359 22.1443 0 19.1266 0 15.7436C0 9.81007 4.81007 5 10.7436 5C16.6771 5 21.4872 9.81007 21.4872 15.7436C21.4872 19.1832 19.8708 22.2453 17.3562 24.2117ZM14.8131 13.4646C14.8131 15.7122 12.9911 17.5342 10.7436 17.5342C8.49601 17.5342 6.67401 15.7122 6.67401 13.4646C6.67401 11.2171 8.49601 9.39509 10.7436 9.39509C12.9911 9.39509 14.8131 11.2171 14.8131 13.4646Z"/>
</mask>
<path fill-rule="evenodd" clip-rule="evenodd" d="M16.163 25.0222C14.5721 25.9534 12.7202 26.4872 10.7436 26.4872C8.76702 26.4872 6.91512 25.9534 5.32416 25.0222H16.163ZM17.3562 24.2117C16.677 22.5002 14.7063 18.6737 10.6622 18.6737C6.69356 18.6737 4.72162 22.3587 4.00752 24.1137C1.56359 22.1443 0 19.1266 0 15.7436C0 9.81007 4.81007 5 10.7436 5C16.6771 5 21.4872 9.81007 21.4872 15.7436C21.4872 19.1832 19.8708 22.2453 17.3562 24.2117ZM14.8131 13.4646C14.8131 15.7122 12.9911 17.5342 10.7436 17.5342C8.49601 17.5342 6.67401 15.7122 6.67401 13.4646C6.67401 11.2171 8.49601 9.39509 10.7436 9.39509C12.9911 9.39509 14.8131 11.2171 14.8131 13.4646Z" fill="#004267"/>
<path d="M16.163 25.0222L16.6682 25.8852L19.851 24.0222H16.163V25.0222ZM5.32416 25.0222V24.0222H1.6362L4.819 25.8852L5.32416 25.0222ZM17.3562 24.2117L16.4267 24.5805L16.9196 25.8225L17.9722 24.9994L17.3562 24.2117ZM4.00752 24.1137L3.38007 24.8923L4.42702 25.736L4.93378 24.4906L4.00752 24.1137ZM10.7436 27.4872C12.9025 27.4872 14.9282 26.9037 16.6682 25.8852L15.6579 24.1591C14.216 25.0031 12.5378 25.4872 10.7436 25.4872V27.4872ZM4.819 25.8852C6.55902 26.9037 8.58469 27.4872 10.7436 27.4872V25.4872C8.94935 25.4872 7.27121 25.0031 5.82932 24.1591L4.819 25.8852ZM16.163 24.0222H5.32416V26.0222H16.163V24.0222ZM10.6622 19.6737C12.3304 19.6737 13.5853 20.4514 14.537 21.48C15.5022 22.5231 16.1093 23.7807 16.4267 24.5805L18.2857 23.8428C17.9239 22.9312 17.2061 21.4198 16.005 20.1217C14.7906 18.8092 13.0381 17.6737 10.6622 17.6737V19.6737ZM4.93378 24.4906C5.26768 23.67 5.88234 22.4367 6.84108 21.4225C7.78602 20.423 9.02434 19.6737 10.6622 19.6737V17.6737C8.33139 17.6737 6.59944 18.7669 5.38773 20.0486C4.18982 21.3157 3.46146 22.8024 3.08126 23.7368L4.93378 24.4906ZM-1 15.7436C-1 19.4419 0.710693 22.7413 3.38007 24.8923L4.63497 23.335C2.41649 21.5474 1 18.8112 1 15.7436H-1ZM10.7436 4C4.25778 4 -1 9.25778 -1 15.7436H1C1 10.3624 5.36235 6 10.7436 6V4ZM22.4872 15.7436C22.4872 9.25778 17.2294 4 10.7436 4V6C16.1248 6 20.4872 10.3624 20.4872 15.7436H22.4872ZM17.9722 24.9994C20.7187 22.8516 22.4872 19.5039 22.4872 15.7436H20.4872C20.4872 18.8625 19.0229 21.6389 16.7402 23.4239L17.9722 24.9994ZM10.7436 18.5342C13.5434 18.5342 15.8131 16.2645 15.8131 13.4646H13.8131C13.8131 15.1599 12.4388 16.5342 10.7436 16.5342V18.5342ZM5.67401 13.4646C5.67401 16.2645 7.94372 18.5342 10.7436 18.5342V16.5342C9.04829 16.5342 7.67401 15.1599 7.67401 13.4646H5.67401ZM10.7436 8.39509C7.94372 8.39509 5.67401 10.6648 5.67401 13.4646H7.67401C7.67401 11.7694 9.04829 10.3951 10.7436 10.3951V8.39509ZM15.8131 13.4646C15.8131 10.6648 13.5434 8.39509 10.7436 8.39509V10.3951C12.4388 10.3951 13.8131 11.7694 13.8131 13.4646H15.8131Z" fill="black" mask="url(#path-1-inside-1)"/>
<path d="M15.3393 14.3905C15.3393 14.8787 15.1357 15.3518 14.8001 15.7918C14.4646 16.2318 14.0021 16.6318 13.4987 16.9701C12.9958 17.3082 12.4562 17.5818 11.9705 17.7707C11.4815 17.9607 11.0585 18.0604 10.7861 18.0604C10.5135 18.0604 10.0851 17.9606 9.5879 17.7704C9.09402 17.5815 8.54368 17.3077 8.03004 16.9695C7.5159 16.631 7.04286 16.2308 6.69954 15.7907C6.35613 15.3506 6.14795 14.8778 6.14795 14.3905C6.14795 14.2218 6.15911 14.0943 6.17918 13.9998C6.19944 13.9044 6.22679 13.8522 6.25164 13.8243C6.28769 13.7838 6.35139 13.7616 6.52149 13.8168C6.66206 13.8625 6.83303 13.9474 7.0452 14.0527C7.08443 14.0722 7.12506 14.0923 7.16717 14.1131C7.43191 14.2436 7.74403 14.3909 8.09969 14.5091C8.31641 14.5811 8.54114 14.5432 8.75789 14.463C8.9741 14.3829 9.19937 14.254 9.42235 14.1245C9.43599 14.1165 9.44963 14.1086 9.46327 14.1007C9.67625 13.9768 9.88944 13.8527 10.1066 13.757C10.3371 13.6554 10.5634 13.5897 10.7861 13.5897C11.3189 13.5897 11.7963 13.8322 12.2567 14.0662C12.2654 14.0706 12.274 14.075 12.2827 14.0794C12.5121 14.1959 12.7407 14.3104 12.9612 14.3772C13.1838 14.4446 13.4107 14.4676 13.634 14.3886C13.9168 14.2887 14.174 14.1691 14.3967 14.0656C14.4052 14.0617 14.4136 14.0578 14.422 14.0539C14.6553 13.9455 14.8407 13.8611 14.988 13.826C15.1338 13.7913 15.1978 13.8145 15.2376 13.8619C15.2921 13.9269 15.3393 14.0763 15.3393 14.3905Z" fill="#AFDAEB" stroke="black" stroke-width="0.25"/>
<path d="M8.13904 15.2552C8.13904 15.2552 9.75138 15.586 10.7967 15.5808C11.8008 15.5757 13.3481 15.2552 13.3481 15.2552" stroke="#004267" stroke-width="0.1" stroke-linecap="round"/>
<path d="M8.13904 16.0692C8.13904 16.0692 9.75138 16.3999 10.7967 16.3947C11.8008 16.3896 13.3481 16.0692 13.3481 16.0692" stroke="#004267" stroke-width="0.1" stroke-linecap="round"/>
<path d="M8.13904 16.8831C8.13904 16.8831 9.75138 17.2138 10.7967 17.2086C11.8008 17.2035 13.3481 16.8831 13.3481 16.8831" stroke="#004267" stroke-width="0.1" stroke-linecap="round"/>
<path d="M39.98 20V16.08C39.98 13.24 40.96 11.88 42.16 11.88C42.9 11.88 43.4 12.26 43.4 13.28V20H45.88V12.86C45.88 10.92 44.76 9.76 42.88 9.76C41.64 9.76 40.52 10.54 39.8 11.84C39.36 10.38 38.22 9.76 36.98 9.76C35.68 9.76 34.82 10.42 34.08 11.54V9.92H31.6V20H34.08V16.3C34.08 13.3 35.04 11.88 36.26 11.88C37 11.88 37.5 12.26 37.5 13.28V20H39.98ZM51.4666 13.04C51.7866 12.1 52.5066 11.88 53.2066 11.88C54.1266 11.88 54.9666 12.24 54.9666 13.36V13.8H53.2866C50.7466 13.8 48.9866 15.1 48.9866 17.1C48.9866 19.1 50.3266 20.16 52.0466 20.16C53.4866 20.16 54.4466 19.58 55.1466 18.72L55.4066 20H57.4466V13.98C57.4466 10.76 55.6066 9.76 53.2066 9.76C51.1466 9.76 49.6866 10.9 49.3666 12.56L51.4666 13.04ZM51.5866 17.06C51.5866 16.16 52.2466 15.76 53.3066 15.76H54.9666V15.96C54.9666 17.26 53.7666 18.04 52.6266 18.04C51.9266 18.04 51.5866 17.54 51.5866 17.06ZM64.12 9.76C62.16 9.76 60.9 11.14 60.9 12.7C60.9 14.26 61.84 14.96 62.94 15.42C64.16 15.94 65.46 16.12 65.46 16.96C65.46 17.7 64.98 18.04 64.22 18.04C63.24 18.04 62.56 17.36 62.2 16.38L60.22 17.44C60.72 18.68 62.12 20.16 64.22 20.16C66.4 20.16 67.8 18.62 67.8 16.8C67.8 14.64 65.54 14.2 64.16 13.7C63.56 13.48 63.2 13.16 63.2 12.72C63.2 12.16 63.64 11.88 64.12 11.88C64.68 11.88 65.34 12.16 65.8 12.76L67.28 11.4C66.66 10.42 65.48 9.76 64.12 9.76ZM70.7719 5.84V20H73.2519V15.24L76.8119 20H79.8519L75.5519 14.56L79.5919 9.92H76.5319L73.2519 13.88V5.84H70.7719Z" fill="#004267"/>
<path d="M88.275 14.96C88.275 18.04 89.935 20.16 92.895 20.16C94.275 20.16 95.415 19.44 95.975 18.66V20H97.655V5.84H95.975V11.2C95.415 10.44 94.295 9.76 92.895 9.76C89.935 9.76 88.275 11.88 88.275 14.96ZM89.995 14.96C89.995 12.8 91.135 11.28 93.055 11.28C94.975 11.28 96.115 12.8 96.115 14.96C96.115 17.12 94.975 18.64 93.055 18.64C91.135 18.64 89.995 17.12 89.995 14.96ZM111.397 14.62C111.397 11.98 109.737 9.76 106.617 9.76C103.597 9.76 101.797 12.12 101.797 14.96C101.797 17.9 103.677 20.16 106.617 20.16C108.497 20.16 110.097 19.46 111.197 17.34L109.857 16.64C109.177 17.9 108.137 18.64 106.617 18.64C104.837 18.64 103.617 17.32 103.517 15.32H111.397V14.62ZM106.617 11.28C108.257 11.28 109.317 12.2 109.617 13.8H103.637C103.977 12.28 104.997 11.28 106.617 11.28ZM114 11.44H116.68V16.66C116.68 19 117.9 20.16 120.1 20.16C121.36 20.16 122.28 19.78 123.2 18.86L122.58 17.44C121.7 18.36 120.98 18.64 120.1 18.64C118.98 18.64 118.36 18 118.36 16.6V11.44H123.28V9.92H118.36V5.84L116.68 6.9V9.92H114V11.44ZM136.202 14.62C136.202 11.98 134.542 9.76 131.422 9.76C128.402 9.76 126.602 12.12 126.602 14.96C126.602 17.9 128.482 20.16 131.422 20.16C133.302 20.16 134.902 19.46 136.002 17.34L134.662 16.64C133.982 17.9 132.942 18.64 131.422 18.64C129.642 18.64 128.422 17.32 128.322 15.32H136.202V14.62ZM131.422 11.28C133.062 11.28 134.122 12.2 134.422 13.8H128.442C128.782 12.28 129.802 11.28 131.422 11.28ZM146.884 16.78C146.364 18 145.464 18.64 144.084 18.64C142.084 18.64 140.984 17.04 140.984 14.96C140.984 12.88 142.084 11.28 144.084 11.28C145.464 11.28 146.364 11.92 146.884 13.14L148.344 12.54C147.524 10.66 146.164 9.76 144.084 9.76C141.004 9.76 139.264 12.22 139.264 14.96C139.264 17.7 141.004 20.16 144.084 20.16C146.164 20.16 147.524 19.26 148.344 17.38L146.884 16.78ZM151.207 11.44H153.887V16.66C153.887 19 155.107 20.16 157.307 20.16C158.567 20.16 159.487 19.78 160.407 18.86L159.787 17.44C158.907 18.36 158.187 18.64 157.307 18.64C156.187 18.64 155.567 18 155.567 16.6V11.44H160.487V9.92H155.567V5.84L153.887 6.9V9.92H151.207V11.44ZM163.529 14.96C163.529 17.74 165.409 20.16 168.489 20.16C171.569 20.16 173.449 17.74 173.449 14.96C173.449 12.18 171.569 9.76 168.489 9.76C165.409 9.76 163.529 12.18 163.529 14.96ZM165.249 14.96C165.249 13.02 166.429 11.28 168.489 11.28C170.549 11.28 171.729 13.02 171.729 14.96C171.729 16.9 170.549 18.64 168.489 18.64C166.429 18.64 165.249 16.9 165.249 14.96ZM185.871 13.12C185.751 10.96 184.551 9.76 182.551 9.76C180.871 9.76 179.611 10.56 178.831 11.78V9.92H177.151V20H178.831V16.36C178.831 12.94 180.491 11.28 182.251 11.28C183.451 11.28 184.051 11.96 184.191 13.12H185.871Z" fill="black"/>
</svg>
