<?xml version="1.0" standalone="no"?>
<!DOCTYPE svg PUBLIC "-//W3C//DTD SVG 20010904//EN"
 "http://www.w3.org/TR/2001/REC-SVG-20010904/DTD/svg10.dtd">
<svg version="1.0" xmlns="http://www.w3.org/2000/svg"
 width="577.000000pt" height="577.000000pt" viewBox="0 0 577.000000 577.000000"
 preserveAspectRatio="xMidYMid meet">
<metadata>
Created by potrace 1.14, written by Peter Selinger 2001-2017
</metadata>
<g transform="translate(0.000000,577.000000) scale(0.100000,-0.100000)"
fill="#000000" stroke="none">
<path d="M2519 2886 c-20 -7 -52 -22 -70 -34 -19 -12 -72 -41 -119 -66 -47
-24 -121 -65 -165 -90 l-80 -46 365 0 364 0 95 98 c53 54 106 110 118 125 l23
27 -248 0 c-176 -1 -257 -5 -283 -14z"/>
<path d="M3112 2892 c-13 -4 -58 -53 -104 -112 l-80 -105 46 -3 c63 -4 58 -22
-6 -22 -37 0 -49 -3 -41 -11 10 -10 1141 -14 1152 -4 7 8 -29 44 -94 94 -99
77 -120 88 -227 128 l-103 38 -260 2 c-143 1 -270 -1 -283 -5z m26 -163 c44
-19 49 -28 32 -60 -12 -21 -50 -26 -50 -6 0 9 -2 9 -9 -1 -5 -8 -21 -12 -37
-10 -23 2 -30 9 -31 28 l-3 25 12 -23 c13 -25 48 -27 56 -3 3 10 0 12 -14 7
-16 -6 -17 -5 -6 6 11 11 17 9 33 -12 13 -15 19 -18 15 -8 -2 9 0 18 6 20 23
8 -4 30 -29 23 -16 -4 -22 -2 -18 5 10 17 -7 11 -22 -7 -13 -16 -14 -16 -9 9
4 16 1 29 -7 32 -30 14 42 -9 81 -25z"/>
<path d="M4058 2523 c-3 -17 -32 -20 -255 -26 -40 -1 -73 -5 -73 -8 0 -4 -9
-9 -21 -12 -14 -4 -19 -2 -15 8 4 11 -56 13 -332 13 -279 -1 -331 -3 -302 -13
l35 -12 -54 0 c-34 1 -47 4 -35 8 17 7 16 8 -4 8 -13 1 -33 -4 -44 -10 -15 -8
-19 -8 -14 0 5 7 -2 11 -18 11 -14 0 -28 -5 -31 -10 -3 -6 -14 -7 -23 -3 -30
14 -137 10 -135 -4 2 -7 -2 -13 -7 -13 -6 0 -10 4 -10 9 0 5 -7 12 -16 15 -10
4 -13 2 -8 -6 4 -7 3 -8 -5 -4 -6 4 -9 16 -6 27 4 11 2 19 -4 19 -6 0 -11 -5
-11 -11 0 -8 -4 -8 -13 -1 -16 14 -99 12 -109 -2 -6 -8 -10 -8 -15 0 -6 8 -24
9 -58 4 -38 -6 -52 -4 -60 7 -9 12 -70 11 -435 -2 -234 -9 -440 -18 -458 -21
-25 -4 -36 -13 -53 -45 -22 -44 -33 -99 -19 -99 5 0 11 6 14 13 3 6 3 1 0 -12
-4 -14 -2 -21 4 -17 5 3 12 -1 16 -9 4 -13 36 -15 198 -15 l194 0 -4 -39 c-2
-24 1 -42 9 -46 9 -6 11 -3 6 8 -4 11 -2 14 9 10 10 -4 14 3 15 23 2 25 2 26
6 6 3 -13 -1 -30 -7 -38 -11 -12 18 -14 213 -14 126 0 237 4 252 10 24 9 26 8
20 -11 -4 -12 -8 -29 -10 -38 -2 -14 -44 -17 -424 -21 -233 -3 -425 -2 -428 3
-6 10 -51 9 -58 -2 -3 -5 5 -12 17 -14 22 -4 22 -4 -2 -6 l-25 -2 25 -14 c16
-9 19 -14 9 -15 -8 0 -24 7 -35 15 -10 8 -14 15 -7 15 7 0 10 7 7 15 -10 25
-20 17 -22 -19 -4 -53 23 -66 133 -66 l90 -1 25 -50 c16 -35 35 -57 60 -69 35
-19 28 -19 -527 -20 -494 0 -563 -2 -563 -15 0 -13 197 -15 1715 -15 1518 0
1715 2 1715 15 0 10 -10 15 -27 15 -25 0 -25 1 14 29 48 35 78 72 94 115 9 24
27 40 78 67 l66 35 8 68 c7 54 5 72 -7 91 -11 16 -16 48 -16 92 0 117 6 111
-125 112 -98 1 -114 -1 -117 -16z m183 -7 c5 3 9 0 9 -6 0 -7 -7 -10 -15 -6
-8 3 -15 4 -15 2 0 -3 -2 -11 -5 -19 -4 -8 0 -14 10 -14 8 0 15 5 15 10 0 6 2
8 5 5 3 -3 1 -16 -4 -29 -9 -21 -10 -22 -11 -4 0 15 -2 17 -9 7 -14 -23 -22
14 -10 46 7 15 13 22 16 14 3 -6 9 -10 14 -6z m-1591 -26 c0 -5 -7 -10 -15
-10 -8 0 -15 5 -15 10 0 6 7 10 15 10 8 0 15 -4 15 -10z m1337 3 c-4 -3 -2
-11 3 -18 7 -8 5 -12 -5 -12 -8 0 -12 4 -9 9 3 4 -9 8 -25 8 -17 0 -31 -5 -31
-11 0 -6 7 -8 16 -5 9 3 12 2 9 -4 -8 -14 55 -10 73 4 11 8 10 11 -5 17 -16 7
-15 8 5 8 13 1 22 -5 22 -13 0 -8 6 -16 13 -19 6 -2 1 -2 -13 0 -24 3 -24 3
-6 -12 11 -8 28 -12 39 -9 11 3 17 2 15 -2 -3 -5 6 -20 20 -34 13 -14 22 -19
18 -12 -4 6 -4 12 1 12 15 0 38 -19 38 -32 0 -7 7 -14 15 -14 8 -1 21 -2 28
-3 7 0 11 -5 7 -11 -4 -6 -15 -6 -30 0 -14 5 -25 7 -25 4 0 -10 27 -33 33 -28
2 3 3 -9 1 -25 -2 -17 0 -33 5 -36 5 -3 7 -24 4 -48 -3 -31 -2 -38 6 -27 8 12
10 11 8 -7 0 -12 -3 -20 -6 -18 -2 3 -9 -3 -16 -12 -10 -13 -13 -4 -17 55 -4
57 -11 80 -36 119 -55 85 -99 113 -179 113 -67 0 -122 -30 -158 -87 -42 -65
-53 -100 -54 -160 -1 -30 -6 -53 -12 -53 -6 0 -9 34 -8 95 1 53 6 90 10 84 5
-8 10 -5 18 8 5 11 8 23 6 27 -3 3 -2 4 2 1 3 -3 18 12 31 32 16 24 21 38 14
41 -8 2 -8 8 2 18 20 20 31 18 15 -3 -12 -15 -12 -16 4 -10 10 4 25 7 33 7 8
0 14 8 14 17 0 13 -3 14 -11 6 -9 -9 -15 -8 -25 2 -27 26 -14 34 64 38 42 1
79 4 81 5 2 1 1 -1 -2 -5z m-1427 -10 c-14 -3 -31 -10 -37 -15 -9 -7 -13 -7
-13 0 0 6 -21 13 -47 15 -27 2 -10 4 37 4 47 0 74 -2 60 -4z m629 -5 c-26 -4
-57 -4 -69 0 -16 6 -2 9 46 9 68 0 68 0 23 -9z m229 1 l37 -1 -40 -9 c-22 -4
-53 -8 -69 -8 -28 -1 -29 0 -10 14 10 8 25 12 32 10 8 -3 30 -6 50 -6z m201 7
c-2 -2 -22 -6 -44 -9 -28 -5 -34 -4 -20 3 19 8 73 14 64 6z m-964 -21 c-17
-14 -15 -15 35 -13 34 1 59 8 66 16 9 12 15 12 30 3 14 -9 15 -11 2 -7 -9 2
-22 -1 -28 -9 -9 -11 -7 -16 9 -24 14 -8 21 -8 24 2 3 6 6 3 6 -8 1 -24 53
-49 69 -33 7 7 9 5 7 -8 -2 -11 -4 -21 -4 -23 -1 -3 -6 0 -13 7 -17 17 -33 15
-18 -3 7 -8 19 -15 28 -15 8 0 12 -3 9 -7 -11 -10 13 -32 29 -26 10 4 12 0 8
-11 -3 -9 -11 -16 -16 -16 -6 0 -7 -11 -3 -27 8 -35 14 -41 24 -25 6 10 91 13
389 12 210 0 388 -3 396 -6 12 -5 11 -9 -5 -25 -18 -18 -37 -19 -389 -19
l-370 0 0 25 0 25 -20 -20 c-11 -11 -20 -32 -21 -47 -1 -16 -5 -39 -9 -53 -6
-18 -8 -4 -9 48 -1 88 -16 125 -81 195 -44 48 -49 51 -107 55 -88 6 -126 -10
-172 -71 -58 -78 -65 -96 -66 -176 -1 -56 -5 -75 -16 -76 -11 -2 -13 7 -11 37
3 22 -1 45 -7 51 -6 6 -11 16 -11 22 0 5 4 4 9 -4 6 -10 11 3 16 42 5 39 15
65 32 83 16 18 22 33 18 47 -5 18 -4 19 5 7 9 -13 14 -11 34 13 12 15 32 29
44 30 17 1 21 6 16 22 -6 18 -5 19 7 3 13 -17 16 -17 44 2 35 23 49 26 20 5z
m1132 9 c-3 -3 -12 -4 -19 -1 -8 3 -5 6 6 6 11 1 17 -2 13 -5z m-1243 -20 c3
-8 2 -12 -4 -9 -6 3 -10 10 -10 16 0 14 7 11 14 -7z m1569 -1 c-3 -6 -11 -9
-19 -6 -20 7 -17 19 5 19 11 0 17 -6 14 -13z m-1700 -13 c-10 -11 -19 -20 -21
-20 -1 0 2 9 8 20 6 11 15 20 20 20 6 0 2 -9 -7 -20z m1708 -17 c-12 -20 -14
-14 -5 12 4 9 9 14 11 11 3 -2 0 -13 -6 -23z m-1591 8 c0 -6 -4 -12 -8 -15 -5
-3 -9 1 -9 9 0 8 4 15 9 15 4 0 8 -4 8 -9z m-110 -28 c0 -14 -19 -38 -25 -32
-8 8 5 39 16 39 5 0 9 -3 9 -7z m958 0 c-10 -2 -28 -2 -40 0 -13 2 -5 4 17 4
22 1 32 -1 23 -4z m416 -8 c-4 -8 -8 -15 -10 -15 -2 0 -4 7 -4 15 0 8 4 15 10
15 5 0 7 -7 4 -15z m429 -5 c-5 -19 -23 -29 -23 -12 0 7 20 32 26 32 1 0 0 -9
-3 -20z m-1763 6 c0 -2 -7 -7 -16 -10 -8 -3 -12 -2 -9 4 6 10 25 14 25 6z
m1792 -69 c-7 -5 -16 -6 -19 -3 -4 3 -1 6 5 6 7 0 9 14 6 38 l-5 37 14 -35
c11 -29 10 -36 -1 -43z m-1785 28 c-9 -21 -27 -19 -27 3 0 14 2 15 10 2 8 -13
10 -12 10 4 0 11 3 17 6 13 4 -3 4 -13 1 -22z m-481 -7 c-1 -13 -7 -21 -12
-19 -5 1 -8 7 -6 12 1 5 -4 9 -10 9 -9 0 -8 4 2 10 23 15 30 12 26 -12z m384
7 c-7 -9 -27 -14 -49 -13 l-36 1 39 4 c29 3 36 7 25 14 -11 7 -8 9 10 9 20 0
21 -2 11 -15z m10 -25 c-8 -6 -33 -9 -55 -8 l-40 1 40 4 c22 3 44 8 49 14 5 5
12 6 15 3 3 -3 -1 -9 -9 -14z m359 -8 c34 -25 63 -86 69 -142 3 -37 -1 -61
-21 -104 -42 -91 -118 -121 -187 -73 -54 36 -73 78 -73 161 1 89 18 126 75
161 49 29 95 28 137 -3z m1313 -9 c33 -29 58 -93 58 -152 0 -41 -7 -65 -30
-106 -58 -102 -155 -101 -221 3 -38 59 -40 136 -6 202 41 81 138 107 199 53z
m-1612 6 c0 -6 -4 -7 -10 -4 -5 3 -10 11 -10 16 0 6 5 7 10 4 6 -3 10 -11 10
-16z m1272 -21 c-7 -7 -12 -8 -12 -2 0 14 12 26 19 19 2 -3 -1 -11 -7 -17z
m-1795 6 c-3 -3 -12 -4 -19 -1 -8 3 -5 6 6 6 11 1 17 -2 13 -5z m1019 -10 c-9
-8 -16 -20 -16 -26 0 -6 -3 -9 -6 -6 -8 9 14 48 27 48 6 0 3 -7 -5 -16z
m-1036 -18 c0 -3 -4 -8 -10 -11 -5 -3 -10 -1 -10 4 0 6 5 11 10 11 6 0 10 -2
10 -4z m2361 -78 c-3 -21 -6 -26 -9 -15 -3 17 3 47 11 47 2 0 1 -15 -2 -32z
m-2721 -68 c0 -5 -4 -10 -10 -10 -5 0 -10 5 -10 10 0 6 5 10 10 10 6 0 10 -4
10 -10z m856 -15 c-3 -9 -11 -13 -16 -10 -8 5 -7 11 1 21 14 18 24 11 15 -11z
m1309 -52 c10 -42 53 -93 91 -109 19 -8 34 -16 34 -19 0 -3 -134 -5 -297 -4
-235 0 -294 3 -279 12 34 21 76 71 88 104 11 31 14 32 72 36 34 2 111 4 172 5
l112 2 7 -27z m-765 -9 c16 -42 50 -84 84 -105 l31 -19 -160 0 -160 1 38 20
c23 12 51 41 73 74 27 43 40 55 60 55 17 0 27 -8 34 -26z m-528 -31 c18 -37
33 -53 68 -70 l45 -22 -285 0 c-274 0 -284 0 -253 17 38 20 69 59 78 95 l7 27
159 0 159 0 22 -47z"/>
<path d="M3845 2470 c4 -6 10 -8 15 -5 14 8 40 -6 33 -19 -3 -6 -2 -7 2 -3 23
20 13 37 -21 37 -21 0 -33 -4 -29 -10z"/>
<path d="M2646 2194 c-17 -45 8 -80 39 -54 21 17 19 47 -4 60 -26 13 -28 13
-35 -6z"/>
<path d="M3945 2181 c-6 -21 9 -61 24 -61 16 0 33 29 29 52 -4 31 -44 37 -53
9z"/>
<path d="M1440 2293 c0 -27 4 -54 9 -62 16 -25 38 -5 39 37 1 32 -3 43 -23 56
l-25 16 0 -47z m40 13 c0 -3 -4 -8 -10 -11 -5 -3 -10 -1 -10 4 0 6 5 11 10 11
6 0 10 -2 10 -4z"/>
<path d="M4220 1915 c0 -13 56 -15 445 -15 389 0 445 2 445 15 0 13 -56 15
-445 15 -389 0 -445 -2 -445 -15z"/>
</g>
</svg>
